<?xml version="1.0" standalone="no"?>
<!DOCTYPE svg PUBLIC "-//W3C//DTD SVG 20010904//EN"
 "http://www.w3.org/TR/2001/REC-SVG-20010904/DTD/svg10.dtd">
<svg version="1.0" xmlns="http://www.w3.org/2000/svg"
 width="736.000000pt" height="736.000000pt" viewBox="0 0 736.000000 736.000000"
 preserveAspectRatio="xMidYMid meet">

<g transform="translate(0.000000,736.000000) scale(0.100000,-0.100000)"
fill="white" stroke="none">
<path d="M1595 6568 c-85 -95 -146 -232 -193 -434 -131 -564 35 -1395 438
-2194 182 -360 331 -582 570 -850 68 -76 113 -137 133 -179 l30 -63 -6 -172
c-6 -170 -26 -342 -72 -633 -14 -84 -25 -168 -25 -187 0 -43 16 -55 117 -92
45 -16 73 -32 73 -41 0 -24 -42 -104 -289 -548 l-111 -200 -425 -5 -426 -5
-49 -109 c-28 -60 -50 -110 -50 -112 0 -2 664 -4 1475 -4 811 0 1475 4 1475 8
0 5 -17 56 -38 113 l-39 104 -276 3 c-153 1 -277 6 -277 10 0 8 153 448 199
570 56 150 42 139 180 147 l120 7 15 67 c8 36 20 92 27 124 7 33 18 57 25 57
25 0 275 -281 434 -488 105 -136 208 -209 331 -232 174 -33 500 7 657 80 53
25 62 33 62 55 0 21 -70 247 -97 314 -3 7 46 -15 108 -48 197 -107 358 -185
365 -179 11 12 -16 289 -36 368 -83 322 -328 965 -510 1335 -174 356 -435 713
-749 1025 -329 328 -619 533 -1076 761 -120 61 -221 111 -222 113 -2 2 8 33
22 69 32 87 81 282 94 380 30 215 0 469 -84 723 -50 149 -152 374 -170 374 -7
0 -83 -46 -170 -102 l-157 -101 -47 17 c-276 106 -627 113 -921 20 l-80 -25
-155 105 -154 105 -46 -51z m221 -245 c60 -41 62 -41 100 -28 107 37 376 75
527 75 174 0 340 -26 475 -75 38 -14 76 -25 84 -25 8 0 72 32 142 71 76 43
131 68 136 63 17 -17 89 -222 114 -326 48 -194 59 -296 53 -493 -7 -253 -44
-390 -150 -552 -117 -181 -298 -317 -499 -373 -365 -102 -742 -42 -980 155
-107 89 -209 236 -262 378 -49 130 -61 223 -60 452 1 198 3 219 33 360 31 141
80 294 122 377 l19 37 43 -27 c23 -15 69 -46 103 -69z m-92 -1549 c129 -128
286 -222 441 -264 104 -28 313 -38 434 -20 212 31 452 154 641 327 l55 51 -71
-143 c-110 -223 -157 -418 -158 -660 0 -114 4 -156 22 -227 64 -246 178 -419
446 -682 226 -222 520 -458 937 -753 170 -120 790 -534 866 -578 35 -21 39
-27 98 -183 45 -117 72 -208 64 -216 -2 -2 -40 -14 -84 -26 -173 -46 -379 -34
-504 28 -59 29 -155 119 -296 277 -48 55 -182 197 -295 315 -114 118 -224 234
-245 258 -38 43 -53 52 -52 30 0 -7 -1 -124 -1 -261 l-2 -247 -246 2 -246 3
-92 285 c-133 409 -126 399 -331 558 -397 309 -657 591 -941 1022 -132 200
-210 337 -305 535 -103 216 -174 403 -259 690 l-9 30 26 -35 c15 -19 63 -71
107 -116z m1989 -73 c265 -130 608 -339 767 -468 78 -63 355 -342 425 -426
326 -396 617 -991 900 -1842 48 -141 85 -261 83 -266 -8 -23 -676 366 -1008
586 -403 267 -647 450 -930 697 -440 383 -627 618 -690 863 -22 88 -27 284
-10 392 27 163 111 373 200 496 53 73 46 74 263 -32z m-803 -2120 c107 -92
215 -186 239 -208 l45 -40 -17 -94 c-10 -52 -31 -175 -47 -274 -40 -237 -37
-225 -62 -225 -12 0 -85 18 -163 40 -77 21 -180 50 -230 62 -106 27 -100 2
-62 239 24 147 87 623 87 657 0 6 4 12 8 12 4 0 95 -76 202 -169z m439 -731
l70 -175 96 3 96 4 -7 -29 c-3 -15 -43 -120 -89 -233 -170 -423 -176 -438
-199 -444 -11 -3 -182 -5 -378 -5 -284 0 -358 2 -358 12 0 23 174 366 294 580
54 97 65 102 184 90 75 -8 99 -7 107 2 6 7 30 97 55 199 24 103 47 183 52 178
4 -4 39 -86 77 -182z"/>
<path d="M1850 6041 c-68 -21 -132 -75 -164 -137 -22 -45 -34 -134 -26 -197
21 -149 148 -260 299 -260 81 0 141 24 205 84 26 23 48 40 49 38 2 -2 36 -103
76 -224 95 -285 130 -377 144 -372 15 5 62 127 149 382 39 116 72 212 74 214
2 2 20 -12 40 -33 56 -58 127 -89 204 -90 93 -1 163 26 221 84 75 75 93 119
94 225 0 79 -3 96 -27 141 -35 66 -93 117 -158 139 -43 14 -76 17 -174 13 -75
-3 -134 -11 -156 -20 -39 -17 -20 35 -201 -560 -35 -115 -66 -202 -70 -195 -3
6 -55 172 -114 367 -59 195 -111 362 -115 371 -5 9 -35 20 -73 27 -71 13 -238
15 -277 3z m176 -107 c77 -37 125 -136 104 -215 -13 -46 -60 -103 -103 -126
-17 -8 -51 -15 -77 -15 -26 0 -60 7 -77 15 -40 21 -91 81 -99 115 -3 15 -7 32
-9 39 -8 26 24 116 51 145 54 57 141 75 210 42z m967 2 c41 -17 91 -74 107
-121 37 -111 -57 -236 -179 -237 -59 0 -96 18 -144 71 -77 86 -51 216 58 282
36 22 111 25 158 5z"/>
<path d="M1864 5875 c-42 -33 -58 -74 -51 -133 4 -39 12 -53 43 -79 32 -29 45
-33 92 -33 50 0 58 3 93 39 36 36 39 43 39 96 0 53 -3 60 -39 96 -35 36 -43
39 -92 39 -42 0 -61 -6 -85 -25z"/>
<path d="M2844 5878 c-43 -33 -52 -49 -60 -94 -13 -87 46 -154 136 -154 81 0
140 57 140 137 0 37 -35 96 -68 116 -43 25 -112 22 -148 -5z"/>
</g>
</svg>
